# xmcd
#
# Track frame offsets:
#	150
#	22045
#	37492
#	51508
#	64473
#	78115
#	93145
#	103918
#	122247
#	134192
#	149576
#	165093
#	180774
#
# Disc length: 2593 seconds
#
# Revision: 1
# Processed by: cddbd v1.4PL0 Copyright (c) Steve Scherf et al.
# Submitted via: EasyCDDAExtractor 5.0.7
#
DISCID=bd0a1f0d
DTITLE=Jimmy Tittle - Don't follow me down
DYEAR=1999
DGENRE=Country Blues
TTITLE0=work, work, work 
TTITLE1='til only you and god are alive 
TTITLE2=the garden and the flame 
TTITLE3=it don't mean nothing 
TTITLE4=let's get ugly 
TTITLE5=i'm sorry lord
TTITLE6=mixed bag
TTITLE7=don't follow me down
TTITLE8=faster than the speed of the sound 
TTITLE9=bring me my monkeys
TTITLE10=down there where it really hurts  
TTITLE11=the level
TTITLE12=on the surface
EXTD=
EXTT0=
EXTT1=
EXTT2=
EXTT3=
EXTT4=
EXTT5=
EXTT6=
EXTT7=
EXTT8=
EXTT9=
EXTT10=
EXTT11=
EXTT12=
PLAYORDER=
